<svg width="158" height="50" viewBox="0 0 158 50" fill="none" xmlns="http://www.w3.org/2000/svg">
<path d="M17.1656 28.4988V30.1859H0V4.24207H16.7317V5.92916H4.49357V16.3945H14.1341V18.0816H4.49357V28.5042H17.1656V28.4988Z" fill="#FDFBEE"/>
<path d="M33.0778 24.4338C33.0778 17.4283 19.415 20.4544 19.415 10.9424C19.415 6.44344 22.8749 3.80835 28.279 3.80835C31.2622 3.80835 33.9883 4.67064 35.8897 5.97212L34.9792 7.39678C33.3349 6.27205 30.9569 5.49544 28.5789 5.49544C25.3333 5.49544 23.2605 6.96295 23.2605 9.5177C23.2605 16.566 36.8805 13.4971 36.8805 23.0091C36.8805 27.8508 33.1207 30.6198 27.24 30.6198C23.4801 30.6198 20.5398 29.6665 18.7241 28.2418L19.6775 26.769C21.3646 28.0222 23.914 28.9327 27.0257 28.9327C30.657 28.9327 33.0778 27.3313 33.0778 24.4338Z" fill="#FDFBEE"/>
<path d="M57.897 28.4988V30.1859H40.7314V4.24207H57.4632V5.92916H45.225V16.3945H54.8656V18.0816H45.225V28.5042H57.897V28.4988Z" fill="#FDFBEE"/>
<path d="M83.5838 4.24205V30.8339H82.5876L63.2154 10.5138V30.1859H61.4855V3.59399H62.4817L81.8538 23.9624V4.24741H83.5838V4.24205Z" fill="#FDFBEE"/>
<path d="M91.7568 0.541184C92.046 0.182341 92.4745 0.000244141 93.0529 0.000244141C93.401 0.000244141 93.7492 0.118074 94.1134 0.348376C94.4722 0.578679 94.6543 0.953589 94.6543 1.47311C94.6543 1.82124 94.5847 2.13723 94.4401 2.42645C94.2955 2.71567 94.1508 3.00489 94.0062 3.28875L88.6022 12.458L87.8256 12.1527L91.1569 1.6445C91.2694 1.26958 91.4729 0.900027 91.7621 0.541184H91.7568Z" fill="#FDFBEE"/>
<path d="M102.999 17.2141C102.999 24.7391 106.587 28.9327 112.425 28.9327C115.494 28.9327 117.915 27.808 120.336 25.9067L121.375 27.2885C119.039 29.2755 116.228 30.6198 112.034 30.6198C103.818 30.6198 98.1088 25.0872 98.1088 17.2141C98.1088 9.34096 103.861 3.80835 112.034 3.80835C116.228 3.80835 119.039 5.14732 121.375 7.1397L120.336 8.52151C117.958 6.62018 115.494 5.49544 112.425 5.49544C106.587 5.49544 102.999 9.73194 102.999 17.2141Z" fill="#FDFBEE"/>
<path d="M129.157 4.24207V30.1859H124.658V4.24207H129.157Z" fill="#FDFBEE"/>
<path d="M149.348 22.9608H136.982L133.65 30.1805H131.749L144.244 3.58862H145.198L157.65 30.1805H152.632L149.343 22.9608H149.348ZM148.572 21.2791L143.211 9.51757L137.764 21.2791H148.572Z" fill="#FDFBEE"/>
<path d="M27.3364 47.1799C27.3364 48.3475 26.5009 49.1616 24.7603 49.1616H21.6324V41.7705H24.5996C26.1528 41.7705 26.9883 42.5364 26.9883 43.629C26.9883 44.427 26.5063 44.984 25.8314 45.2893C26.7419 45.5732 27.3311 46.2105 27.3311 47.1746L27.3364 47.1799ZM22.9179 42.2525V45.1233H24.3211C25.2316 45.1233 25.7029 44.6038 25.7029 43.6933C25.7029 42.7828 25.1887 42.2525 24.1872 42.2525H22.9179ZM26.0457 47.1424C26.0457 46.157 25.5155 45.6053 24.5568 45.6053H23.3731V45.5785H22.9179V48.6796H24.4711C25.5155 48.6796 26.0457 48.1279 26.0457 47.1424Z" fill="#FDFBEE"/>
<path d="M34.6043 41.7705H35.1078V46.414C35.1078 48.2243 34.0473 49.2848 32.0657 49.2848C30.2661 49.2848 28.9271 48.3743 28.9271 46.4408V41.7759H30.2072V46.5158C30.2072 47.9565 31.0588 48.7813 32.3388 48.7813C33.6189 48.7813 34.6043 48.0315 34.6043 46.4515V41.7705Z" fill="#FDFBEE"/>
<path d="M38.4337 41.7705V49.1616H37.1537V41.7705H38.4337Z" fill="#FDFBEE"/>
<path d="M45.4285 48.6796V49.1616H40.5493V41.7705H41.8294V48.6796H45.4232H45.4285Z" fill="#FDFBEE"/>
<path d="M53.4463 45.4661C53.4463 47.6941 52.0323 49.1616 49.6168 49.1616H46.7354V41.7705H49.6168C52.0323 41.7705 53.4463 43.238 53.4463 45.4661ZM52.0912 45.4661C52.0912 43.3451 51.1807 42.2525 49.6168 42.2525H48.0154V48.6796H49.6168C51.1807 48.6796 52.0912 47.5816 52.0912 45.4661Z" fill="#FDFBEE"/>
<path d="M63.767 42.2525H61.1212V49.1616H59.8519V42.2525H57.2168V41.7705H63.767V42.2525Z" fill="#FDFBEE"/>
<path d="M71.5062 41.7705V49.1616H70.2262V45.7017H66.3485V49.1616H65.0685V41.7705H66.3485V45.2304H70.2262V41.7705H71.5062Z" fill="#FDFBEE"/>
<path d="M78.5117 48.6796V49.1616H73.6218V41.7705H78.3886V42.2525H74.9019V45.2304H77.6494V45.7124H74.9019V48.6796H78.5117Z" fill="#FDFBEE"/>
<path d="M88.9932 47.1799C88.9932 48.3475 88.1577 49.1616 86.417 49.1616H83.2892V41.7705H86.2563C87.8095 41.7705 88.6451 42.5364 88.6451 43.629C88.6451 44.427 88.163 44.984 87.4882 45.2893C88.3987 45.5732 88.9878 46.2105 88.9878 47.1746L88.9932 47.1799ZM84.5692 42.2525V45.1233H85.9725C86.883 45.1233 87.3543 44.6038 87.3543 43.6933C87.3543 42.7828 86.8401 42.2525 85.8386 42.2525H84.5692ZM87.7024 47.1424C87.7024 46.157 87.1722 45.6053 86.2135 45.6053H85.0298V45.5785H84.5746V48.6796H86.1278C87.1722 48.6796 87.7024 48.1279 87.7024 47.1424Z" fill="#FDFBEE"/>
<path d="M94.633 47.1049H91.1088L90.1608 49.1616H89.6199L93.1815 41.5884H93.4547L97.0003 49.1616H95.5702L94.633 47.1049ZM94.4134 46.6229L92.8869 43.2755L91.3337 46.6229H94.4134Z" fill="#FDFBEE"/>
<path d="M103.084 48.6796V49.1616H98.2052V41.7705H99.4853V48.6796H103.079H103.084Z" fill="#FDFBEE"/>
<path d="M108.489 47.1049H104.964L104.016 49.1616H103.475L107.037 41.5884H107.31L110.856 49.1616H109.426L108.489 47.1049ZM108.269 46.6229L106.743 43.2755L105.189 46.6229H108.269Z" fill="#FDFBEE"/>
<path d="M118.354 41.7705V49.3437H118.07L112.554 43.554V49.1562H112.061V41.583H112.345L117.861 47.3834V41.7651H118.354V41.7705Z" fill="#FDFBEE"/>
<path d="M121.396 45.466C121.396 47.6083 122.419 48.8027 124.079 48.8027C124.952 48.8027 125.643 48.4813 126.334 47.9404L126.629 48.3367C125.965 48.9044 125.161 49.2847 123.967 49.2847C121.626 49.2847 120.004 47.7101 120.004 45.466C120.004 43.2218 121.643 41.6472 123.967 41.6472C125.161 41.6472 125.965 42.0275 126.629 42.5952L126.334 42.9915C125.659 42.4506 124.952 42.1292 124.079 42.1292C122.419 42.1292 121.396 43.3343 121.396 45.466Z" fill="#FDFBEE"/>
<path d="M132.927 48.6796V49.1616H128.037V41.7705H132.804V42.2525H129.318V45.2304H132.065V45.7124H129.318V48.6796H132.927Z" fill="#FDFBEE"/>
</svg>